<?xml version="1.0" standalone="no"?><!DOCTYPE svg PUBLIC "-//W3C//DTD SVG 1.1//EN" "http://www.w3.org/Graphics/SVG/1.1/DTD/svg11.dtd"><svg t="1743930419012" class="icon" viewBox="0 0 1024 1024" version="1.1" xmlns="http://www.w3.org/2000/svg" p-id="2773" width="128" height="128" xmlns:xlink="http://www.w3.org/1999/xlink"><path d="M885.333333 170.666667h-92.986666c0.666667 1.126667 1.333333 2.266667 2 3.406666 10.826667 19.146667 16.32 39.533333 16.32 60.593334a64 64 0 0 1-64 64H320a64 64 0 0 1-64-64c0-21.06 5.493333-41.446667 16.32-60.593334 0.666667-1.14 1.333333-2.28 2-3.406666H181.333333a53.393333 53.393333 0 0 0-53.333333 53.333333v704a53.393333 53.393333 0 0 0 53.333333 53.333333h704a53.393333 53.393333 0 0 0 53.333334-53.333333V224a53.393333 53.393333 0 0 0-53.333334-53.333333z m-422.246666 548.42l-85.333334 85.333333a21.333333 21.333333 0 0 1-30.173333 0l-42.666667-42.666667a21.333333 21.333333 0 0 1 30.173334-30.173333l27.58 27.586667 70.246666-70.253334a21.333333 21.333333 0 0 1 30.173334 30.173334z m0-170.666667l-85.333334 85.333333a21.333333 21.333333 0 0 1-30.173333 0l-42.666667-42.666666a21.333333 21.333333 0 0 1 30.173334-30.173334L362.666667 588.5l70.246666-70.253333a21.333333 21.333333 0 0 1 30.173334 30.173333z m0-170.666667l-85.333334 85.333334a21.333333 21.333333 0 0 1-30.173333 0l-42.666667-42.666667a21.333333 21.333333 0 0 1 30.173334-30.173333L362.666667 417.833333l70.246666-70.253333a21.333333 21.333333 0 0 1 30.173334 30.173333zM746.666667 768H533.333333a21.333333 21.333333 0 0 1 0-42.666667h213.333334a21.333333 21.333333 0 0 1 0 42.666667z m0-170.666667H533.333333a21.333333 21.333333 0 0 1 0-42.666666h213.333334a21.333333 21.333333 0 0 1 0 42.666666z m0-170.666666H533.333333a21.333333 21.333333 0 0 1 0-42.666667h213.333334a21.333333 21.333333 0 0 1 0 42.666667zM298.666667 234.666667c0-26.046667 13.273333-50.786667 38.38-71.546667 19.54-16.153333 46.053333-29.666667 77.186666-39.38a129.22 129.22 0 0 1 41.453334-54.84 128 128 0 0 1 155.293333 0 129.22 129.22 0 0 1 41.453333 54.84c31.133333 9.713333 57.653333 23.226667 77.186667 39.38C754.726667 183.88 768 208.62 768 234.666667a21.333333 21.333333 0 0 1-21.333333 21.333333H320a21.333333 21.333333 0 0 1-21.333333-21.333333z" fill="#4428bb" p-id="2774"></path></svg>